<?xml version="1.0" encoding="UTF-8" standalone="no"?>
<!-- Created with Inkscape (http://www.inkscape.org/) -->

<svg
   width="210mm"
   height="297mm"
   viewBox="0 0 210 297"
   version="1.1"
   id="svg1"
   inkscape:export-filename="teste05.png"
   inkscape:export-xdpi="96"
   inkscape:export-ydpi="96"
   inkscape:version="1.4 (e7c3feb100, 2024-10-09)"
   sodipodi:docname="disco.svg"
   xmlns:inkscape="http://www.inkscape.org/namespaces/inkscape"
   xmlns:sodipodi="http://sodipodi.sourceforge.net/DTD/sodipodi-0.dtd"
   xmlns="http://www.w3.org/2000/svg"
   xmlns:svg="http://www.w3.org/2000/svg">
  <sodipodi:namedview
     id="namedview1"
     pagecolor="#ffffff"
     bordercolor="#000000"
     borderopacity="0.25"
     inkscape:showpageshadow="2"
     inkscape:pageopacity="0.0"
     inkscape:pagecheckerboard="0"
     inkscape:deskcolor="#d1d1d1"
     inkscape:document-units="mm"
     inkscape:zoom="2.0157702"
     inkscape:cx="235.64194"
     inkscape:cy="269.87204"
     inkscape:window-width="1920"
     inkscape:window-height="1011"
     inkscape:window-x="0"
     inkscape:window-y="0"
     inkscape:window-maximized="1"
     inkscape:current-layer="layer1" />
  <defs
     id="defs1" />
  <g
     inkscape:label="Camada 1"
     inkscape:groupmode="layer"
     id="layer1">
    <rect
       style="fill:#4d4d4d;stroke:#000000;stroke-width:0"
       id="rect1-90-7"
       width="14.310821"
       height="21.232395"
       x="31.024946"
       y="35.562885"
       ry="1.8706962" />
    <rect
       style="fill:#808080;stroke:#000000;stroke-width:0"
       id="rect1-90"
       width="14.310821"
       height="21.232395"
       x="30.220829"
       y="34.857082"
       ry="1.8706962" />
    <path
       id="rect1-9-2"
       style="fill:#b3b3b3;stroke:#000000;stroke-width:0"
       d="M 30.700148,42.956317 V 53.33616 a 0.84756999,0.92064593 0 0 0 -1.34e-4,0.0044 l -2.34e-4,0.01207 a 0.84756999,0.92064593 0 0 0 0.827481,0.938887 0.84756999,0.92064593 0 0 0 0.08415,-0.0025 v 0.0012 h 2.456328 v -0.0012 a 0.84756999,0.92064593 0 0 0 0.07905,0.0058 0.84756999,0.92064593 0 0 0 0.866247,-0.873169 c 0.09379,-0.329914 0.384119,-0.569096 0.729692,-0.569096 h 7.494302 a 0.84756999,0.92064593 0 0 0 0.02673,0.0012 0.84756999,0.92064593 0 0 0 0.862808,-0.824722 h 0.0012 v -0.0085 a 0.84756999,0.92064593 0 0 0 0.0032,-0.06249 0.84756999,0.92064593 0 0 0 -0.0032,-0.111617 v -4.303952 a 0.84756999,0.92064593 0 0 0 0.0012,-0.02233 0.84756999,0.92064593 0 0 0 -0.0012,-0.02178 v -0.01515 l -5.95e-4,-2.34e-4 A 0.84756999,0.92064593 0 0 0 43.3066,46.575424 0.84756999,0.92064593 0 0 0 42.557134,47.017104 6.6421335,6.8292696 0 0 1 37.185491,49.617077 6.6421335,6.8292696 0 0 1 30.7005,42.956715 Z" />
    <path
       style="fill:#ffd5d5;stroke:#000000;stroke-width:0.0788903;stroke-dasharray:none"
       id="path1-9-7-8"
       sodipodi:type="arc"
       sodipodi:cx="-0.20633945"
       sodipodi:cy="56.569649"
       sodipodi:rx="6.3503256"
       sodipodi:ry="6.2200623"
       sodipodi:start="3.17482"
       sodipodi:end="3.1616747"
       sodipodi:open="true"
       sodipodi:arc-type="arc"
       d="m -6.5531598,56.363011 a 6.3503256,6.2200623 0 0 1 6.53692718,-6.010637 6.3503256,6.2200623 0 0 1 6.15796302,6.383049 6.3503256,6.2200623 0 0 1 -6.49645311,6.05259 6.3503256,6.2200623 0 0 1 -6.20066189,-6.343267"
       transform="rotate(-41.597714)" />
    <path
       id="path1-9-7-2-3-3"
       style="fill:#cccccc;stroke:#000000;stroke-width:0.0788903;stroke-dasharray:none"
       d="m 39.047133,41.097107 a 2.0383654,2.0810534 48.402286 0 1 0.0365,0.04231 2.0383654,2.0810534 48.402286 0 1 -0.221275,2.849352 l 2.719638,3.06346 a 6.2200622,6.3503255 48.402286 0 0 0.680548,-8.699535 6.2200622,6.3503255 48.402286 0 0 -0.05348,-0.06261 z" />
    <rect
       style="fill:#cccccc;fill-rule:evenodd;stroke:#000000;stroke-width:0;stroke-dasharray:none"
       id="rect5-8"
       width="7.6236529"
       height="0.18346818"
       x="-1.5219975"
       y="56.596294"
       transform="rotate(-41.597714)" />
    <path
       style="fill:#b3b3b3;stroke:#000000;stroke-width:0;stroke-dasharray:none"
       id="path1-9-7-9-0-0"
       sodipodi:type="arc"
       sodipodi:cx="-0.15375249"
       sodipodi:cy="56.663261"
       sodipodi:rx="2.1256733"
       sodipodi:ry="2.0820699"
       sodipodi:start="3.17482"
       sodipodi:end="3.1616747"
       sodipodi:open="true"
       sodipodi:arc-type="arc"
       d="m -2.2782525,56.594092 a 2.1256733,2.0820699 0 0 1 2.18813533,-2.011967 2.1256733,2.0820699 0 0 1 2.06128287,2.136627 2.1256733,2.0820699 0 0 1 -2.17458719,2.026011 2.1256733,2.0820699 0 0 1 -2.07557571,-2.123311"
       transform="rotate(-41.597714)" />
    <path
       style="fill:#ffd5d5;stroke:#000000;stroke-width:0;stroke-dasharray:none"
       id="path1-9-7-9-3-4"
       sodipodi:type="arc"
       sodipodi:cx="-0.16966036"
       sodipodi:cy="56.65641"
       sodipodi:rx="2.0372093"
       sodipodi:ry="1.9954201"
       sodipodi:start="3.17482"
       sodipodi:end="3.1616747"
       sodipodi:open="true"
       sodipodi:arc-type="arc"
       d="m -2.2057451,56.59012 a 2.0372093,1.9954201 0 0 1 2.09707175,-1.928236 2.0372093,1.9954201 0 0 1 1.97549865,2.047707 2.0372093,1.9954201 0 0 1 -2.08408759,1.941695 2.0372093,1.9954201 0 0 1 -1.98919661,-2.034945"
       transform="rotate(-41.597714)" />
    <path
       style="fill:#999999;stroke:#000000;stroke-width:0;stroke-dasharray:none"
       id="path1-9-7-9-3-3-0"
       sodipodi:type="arc"
       sodipodi:cx="-0.16828676"
       sodipodi:cy="56.657135"
       sodipodi:rx="1.4691156"
       sodipodi:ry="1.43898"
       sodipodi:start="3.17482"
       sodipodi:end="3.1616747"
       sodipodi:open="true"
       sodipodi:arc-type="arc"
       d="M -1.6365915,56.60933 A 1.4691156,1.43898 0 0 1 -0.12430651,55.2188 1.4691156,1.43898 0 0 1 1.300307,56.695486 1.4691156,1.43898 0 0 1 -0.20261447,58.095722 1.4691156,1.43898 0 0 1 -1.6371061,56.628239"
       transform="rotate(-41.597714)" />
    <path
       style="fill:#e6e6e6;stroke:#000000;stroke-width:0;stroke-dasharray:none"
       id="path1-9-7-9-3-3-5-9"
       sodipodi:type="arc"
       sodipodi:cx="-0.17042142"
       sodipodi:cy="56.674824"
       sodipodi:rx="0.69680774"
       sodipodi:ry="0.68251437"
       sodipodi:start="3.17482"
       sodipodi:end="3.1616747"
       sodipodi:open="true"
       sodipodi:arc-type="arc"
       d="m -0.86684454,56.65215 a 0.69680774,0.68251437 0 0 1 0.71728314,-0.659535 0.69680774,0.68251437 0 0 1 0.6757002,0.700399 0.69680774,0.68251437 0 0 1 -0.712842,0.664138 0.69680774,0.68251437 0 0 1 -0.68038546,-0.696034"
       transform="rotate(-41.597714)" />
    <path
       style="fill:#e6e6e6;stroke:#000000;stroke-width:0;stroke-dasharray:none"
       id="path1-9-7-9-3-3-5-8-1"
       sodipodi:type="arc"
       sodipodi:cx="-0.24134792"
       sodipodi:cy="48.371338"
       sodipodi:rx="0.62301028"
       sodipodi:ry="0.61023057"
       sodipodi:start="3.17482"
       sodipodi:end="3.1616747"
       sodipodi:open="true"
       sodipodi:arc-type="arc"
       d="m -0.86401431,48.351065 a 0.62301028,0.61023057 0 0 1 0.64131716,-0.589684 0.62301028,0.61023057 0 0 1 0.6041382,0.62622 0.62301028,0.61023057 0 0 1 -0.63734638,0.593801 0.62301028,0.61023057 0 0 1 -0.60832725,-0.622318"
       transform="rotate(-41.597714)" />
    <path
       style="fill:#e6e6e6;stroke:#000000;stroke-width:0;stroke-dasharray:none"
       id="path1-9-7-9-3-3-5-8-2-9"
       sodipodi:type="arc"
       sodipodi:cx="-8.4377966"
       sodipodi:cy="57.594105"
       sodipodi:rx="0.62301028"
       sodipodi:ry="0.61023057"
       sodipodi:start="3.17482"
       sodipodi:end="3.1616747"
       sodipodi:open="true"
       sodipodi:arc-type="arc"
       d="m -9.060463,57.573832 a 0.62301028,0.61023057 0 0 1 0.6413172,-0.589684 0.62301028,0.61023057 0 0 1 0.6041382,0.62622 0.62301028,0.61023057 0 0 1 -0.6373464,0.593801 0.62301028,0.61023057 0 0 1 -0.6083272,-0.622318"
       transform="rotate(-41.597714)" />
    <path
       style="fill:#e6e6e6;stroke:#000000;stroke-width:0;stroke-dasharray:none"
       id="path1-9-7-9-3-3-5-5-6"
       sodipodi:type="arc"
       sodipodi:cx="-0.17808764"
       sodipodi:cy="55.602936"
       sodipodi:rx="0.28822157"
       sodipodi:ry="0.28230935"
       sodipodi:start="3.17482"
       sodipodi:end="3.1616747"
       sodipodi:open="true"
       sodipodi:arc-type="arc"
       d="m -0.46615011,55.593557 a 0.28822157,0.28230935 0 0 1 0.29669083,-0.272804 0.28822157,0.28230935 0 0 1 0.27949083,0.289707 0.28822157,0.28230935 0 0 1 -0.29485384,0.274708 0.28822157,0.28230935 0 0 1 -0.2814288,-0.287901"
       transform="rotate(-41.597714)" />
    <path
       style="fill:#ececec;stroke:#000000;stroke-width:0;stroke-dasharray:none"
       id="path1-9-7-9-3-3-5-5-4-2"
       sodipodi:type="arc"
       sodipodi:cx="-0.17775352"
       sodipodi:cy="57.72607"
       sodipodi:rx="0.28822157"
       sodipodi:ry="0.28230935"
       sodipodi:start="3.17482"
       sodipodi:end="3.1616747"
       sodipodi:open="true"
       sodipodi:arc-type="arc"
       d="m -0.465816,57.716692 a 0.28822157,0.28230935 0 0 1 0.29669084,-0.272804 0.28822157,0.28230935 0 0 1 0.27949082,0.289706 0.28822157,0.28230935 0 0 1 -0.29485384,0.274709 0.28822157,0.28230935 0 0 1 -0.28142879,-0.287902"
       transform="rotate(-41.597714)" />
    <path
       style="fill:#e6e6e6;stroke:#000000;stroke-width:0;stroke-dasharray:none"
       id="path1-9-7-9-3-3-5-5-4-7-5"
       sodipodi:type="arc"
       sodipodi:cx="0.9199369"
       sodipodi:cy="56.673424"
       sodipodi:rx="0.28822157"
       sodipodi:ry="0.28230935"
       sodipodi:start="3.17482"
       sodipodi:end="3.1616747"
       sodipodi:open="true"
       sodipodi:arc-type="arc"
       d="M 0.63187442,56.664045 A 0.28822157,0.28230935 0 0 1 0.92856525,56.391241 0.28822157,0.28230935 0 0 1 1.2080561,56.680948 0.28822157,0.28230935 0 0 1 0.91320224,56.955656 0.28822157,0.28230935 0 0 1 0.63177344,56.667755"
       transform="rotate(-41.597714)" />
    <path
       style="fill:#e6e6e6;stroke:#000000;stroke-width:0;stroke-dasharray:none"
       id="path1-9-7-9-3-3-5-5-4-78-4"
       sodipodi:type="arc"
       sodipodi:cx="-1.2357298"
       sodipodi:cy="56.675568"
       sodipodi:rx="0.28822157"
       sodipodi:ry="0.28230935"
       sodipodi:start="3.17482"
       sodipodi:end="3.1616747"
       sodipodi:open="true"
       sodipodi:arc-type="arc"
       d="m -1.5237923,56.666189 a 0.28822157,0.28230935 0 0 1 0.2966908,-0.272804 0.28822157,0.28230935 0 0 1 0.27949087,0.289707 0.28822157,0.28230935 0 0 1 -0.29485387,0.274708 0.28822157,0.28230935 0 0 1 -0.2814288,-0.287901"
       transform="rotate(-41.597714)" />
    <path
       style="fill:#e6e6e6;stroke:#000000;stroke-width:0;stroke-dasharray:none"
       id="path1-9-7-9-3-3-5-5-4-3-4"
       sodipodi:type="arc"
       sodipodi:cx="0.59848434"
       sodipodi:cy="55.959759"
       sodipodi:rx="0.28822157"
       sodipodi:ry="0.28230935"
       sodipodi:start="3.17482"
       sodipodi:end="3.1616747"
       sodipodi:open="true"
       sodipodi:arc-type="arc"
       d="M 0.31042186,55.95038 A 0.28822157,0.28230935 0 0 1 0.6071127,55.677576 0.28822157,0.28230935 0 0 1 0.88660352,55.967283 0.28822157,0.28230935 0 0 1 0.59174968,56.241991 0.28822157,0.28230935 0 0 1 0.31032089,55.95409"
       transform="rotate(-41.597714)" />
    <path
       style="fill:#e6e6e6;stroke:#000000;stroke-width:0;stroke-dasharray:none"
       id="path1-9-7-9-3-3-5-5-4-0-9"
       sodipodi:type="arc"
       sodipodi:cx="0.59620118"
       sodipodi:cy="57.434105"
       sodipodi:rx="0.28822157"
       sodipodi:ry="0.28230935"
       sodipodi:start="3.17482"
       sodipodi:end="3.1616747"
       sodipodi:open="true"
       sodipodi:arc-type="arc"
       d="m 0.30813871,57.424726 a 0.28822157,0.28230935 0 0 1 0.29669083,-0.272804 0.28822157,0.28230935 0 0 1 0.27949083,0.289707 0.28822157,0.28230935 0 0 1 -0.29485384,0.274708 0.28822157,0.28230935 0 0 1 -0.2814288,-0.287901"
       transform="rotate(-41.597714)" />
    <path
       style="fill:#e6e6e6;stroke:#000000;stroke-width:0;stroke-dasharray:none"
       id="path1-9-7-9-3-3-5-5-4-6-93"
       sodipodi:type="arc"
       sodipodi:cx="-0.94227862"
       sodipodi:cy="55.946003"
       sodipodi:rx="0.28822157"
       sodipodi:ry="0.28230935"
       sodipodi:start="3.17482"
       sodipodi:end="3.1616747"
       sodipodi:open="true"
       sodipodi:arc-type="arc"
       d="m -1.2303411,55.936624 a 0.28822157,0.28230935 0 0 1 0.29669084,-0.272804 0.28822157,0.28230935 0 0 1 0.27949082,0.289707 0.28822157,0.28230935 0 0 1 -0.29485384,0.274708 0.28822157,0.28230935 0 0 1 -0.28142882,-0.287901"
       transform="rotate(-41.597714)" />
    <path
       style="fill:#ececec;stroke:#000000;stroke-width:0;stroke-dasharray:none"
       id="path1-9-7-9-3-3-5-5-4-04-6"
       sodipodi:type="arc"
       sodipodi:cx="-0.89037842"
       sodipodi:cy="57.456242"
       sodipodi:rx="0.28822157"
       sodipodi:ry="0.28230935"
       sodipodi:start="3.17482"
       sodipodi:end="3.1616747"
       sodipodi:open="true"
       sodipodi:arc-type="arc"
       d="m -1.1784409,57.446863 a 0.28822157,0.28230935 0 0 1 0.29669084,-0.272804 0.28822157,0.28230935 0 0 1 0.27949083,0.289707 0.28822157,0.28230935 0 0 1 -0.29485384,0.274708 0.28822157,0.28230935 0 0 1 -0.28142883,-0.287901"
       transform="rotate(-41.597714)" />
    <rect
       style="fill:#cccccc;fill-rule:evenodd;stroke:#000000;stroke-width:0;stroke-dasharray:none"
       id="rect9-0"
       width="0.15127756"
       height="4.0158558"
       x="-0.20023246"
       y="58.734539"
       transform="rotate(-41.597714)" />
    <rect
       style="fill:#000000;fill-rule:evenodd;stroke:#000000;stroke-width:0;stroke-dasharray:none"
       id="rect10-5"
       width="0.078707784"
       height="0.11089148"
       x="-4.9207506"
       y="56.504498"
       transform="matrix(0.76591044,-0.64294728,0.64146789,0.76714989,0,0)" />
    <rect
       style="fill:#666666;fill-rule:evenodd;stroke:#000000;stroke-width:0;stroke-dasharray:none"
       id="rect12-0"
       width="7.5765481"
       height="3.0011001"
       x="35.80793"
       y="51.889965"
       ry="0.59038025" />
    <path
       style="fill:#e6e6e6;stroke:#000000;stroke-width:0;stroke-dasharray:none"
       id="path1-9-7-9-3-3-5-8-2-2-2"
       sodipodi:type="arc"
       sodipodi:cx="36.564373"
       sodipodi:cy="54.205036"
       sodipodi:rx="0.37701845"
       sodipodi:ry="0.36928478"
       sodipodi:start="3.17482"
       sodipodi:end="3.1616747"
       sodipodi:open="true"
       sodipodi:arc-type="arc"
       d="m 36.187563,54.192768 a 0.37701845,0.36928478 0 0 1 0.388097,-0.356851 0.37701845,0.36928478 0 0 1 0.365598,0.378961 0.37701845,0.36928478 0 0 1 -0.385694,0.359342 0.37701845,0.36928478 0 0 1 -0.368133,-0.376599" />
    <path
       style="fill:#e6e6e6;stroke:#000000;stroke-width:0;stroke-dasharray:none"
       id="path1-9-7-9-3-3-5-8-2-2-0-9"
       sodipodi:type="arc"
       sodipodi:cx="42.474789"
       sodipodi:cy="52.540749"
       sodipodi:rx="0.37701845"
       sodipodi:ry="0.36928478"
       sodipodi:start="3.17482"
       sodipodi:end="3.1616747"
       sodipodi:open="true"
       sodipodi:arc-type="arc"
       d="m 42.097978,52.528481 a 0.37701845,0.36928478 0 0 1 0.388097,-0.356852 0.37701845,0.36928478 0 0 1 0.365598,0.378962 0.37701845,0.36928478 0 0 1 -0.385694,0.359342 0.37701845,0.36928478 0 0 1 -0.368133,-0.3766" />
    <path
       id="rect13"
       style="fill:#cccccc;fill-rule:evenodd;stroke:#000000;stroke-width:0;stroke-dasharray:none"
       d="m 36.081416,45.607974 -3.837629,4.992305 a 1.1642861,1.1886688 75.777512 0 0 -0.03925,0.05093 l -0.0427,0.05559 0.0032,0.0018 a 1.1642861,1.1886688 75.777512 0 0 -0.157707,0.867654 l 0.0032,0.01487 a 1.1642861,1.1886688 75.777512 0 0 1.416826,0.865849 1.1642861,1.1886688 75.777512 0 0 0.823855,-0.668068 l 0.0032,0.0018 0.0075,-0.02551 a 1.1642861,1.1886688 75.777512 0 0 5.7e-5,-1.03e-4 1.1642861,1.1886688 75.777512 0 0 0.07696,-0.260543 1.1642861,1.1886688 75.777512 0 0 2.1e-4,-5.95e-4 z" />
    <path
       style="fill:#e6e6e6;stroke:#000000;stroke-width:0;stroke-dasharray:none"
       id="path1-9-7-9-3-3-5-8-2-9-1"
       sodipodi:type="arc"
       sodipodi:cx="-16.054096"
       sodipodi:cy="58.883434"
       sodipodi:rx="0.49817106"
       sodipodi:ry="0.4879522"
       sodipodi:start="3.17482"
       sodipodi:end="3.1616747"
       sodipodi:open="true"
       sodipodi:arc-type="arc"
       d="m -16.551992,58.867224 a 0.49817106,0.4879522 0 0 1 0.512809,-0.471523 0.49817106,0.4879522 0 0 1 0.483081,0.500738 0.49817106,0.4879522 0 0 1 -0.509635,0.474814 0.49817106,0.4879522 0 0 1 -0.48643,-0.497617"
       transform="rotate(-48.200263)" />
  </g>
</svg>
